<svg width="35" height="20" viewBox="0 0 35 20" fill="none" xmlns="http://www.w3.org/2000/svg">
<path d="M9.0636 19.0886C7.77221 19.0886 6.56852 18.8706 5.45251 18.4347C4.35244 17.9819 3.39586 17.3447 2.58277 16.523C1.76967 15.7012 1.13195 14.7371 0.669606 13.6303C0.223196 12.5236 0 11.3079 0 9.98304C0 8.65822 0.223196 7.44253 0.669606 6.33577C1.13195 5.22901 1.76967 4.2648 2.58277 3.44311C3.41181 2.62142 4.37636 1.99258 5.47642 1.55659C6.57649 1.10382 7.78018 0.877441 9.08751 0.877441C10.5383 0.877441 11.8456 1.14575 13.0095 1.68236C14.1892 2.2022 15.1778 2.97357 15.9749 3.99649L13.4878 6.41123C12.9138 5.72377 12.2761 5.21224 11.5746 4.87686C10.8731 4.52471 10.1079 4.34864 9.27883 4.34864C8.49762 4.34864 7.78018 4.48279 7.12652 4.7511C6.47287 5.01941 5.90688 5.40509 5.42859 5.90816C4.9503 6.41123 4.57564 7.0066 4.30461 7.69407C4.04952 8.38154 3.92198 9.14466 3.92198 9.98304C3.92198 10.8214 4.04952 11.5846 4.30461 12.272C4.57564 12.9595 4.9503 13.5549 5.42859 14.0579C5.90688 14.561 6.47287 14.9466 7.12652 15.215C7.78018 15.4834 8.49762 15.6175 9.27883 15.6175C10.1079 15.6175 10.8731 15.4497 11.5746 15.1144C12.2761 14.7622 12.9138 14.234 13.4878 13.5297L15.9749 15.9444C15.1778 16.9674 14.1892 17.7472 13.0095 18.2837C11.8456 18.8203 10.5303 19.0886 9.0636 19.0886ZM23.5431 18.7868L16.3209 1.17928H20.506L26.8194 16.7745H24.3562L30.7653 1.17928H34.6155L27.3694 18.7868H23.5431Z" fill="#9DBFD9"/>
</svg>
