<svg width="21" height="17" viewBox="0 0 21 17" fill="none" xmlns="http://www.w3.org/2000/svg">
<path d="M5.45801 8.46484C6.24967 8.25651 6.93717 8.25651 7.52051 8.46484C8.10384 8.63151 8.58301 8.92318 8.95801 9.33984C9.37467 9.75651 9.68717 10.2565 9.89551 10.8398C10.1038 11.3815 10.208 11.9232 10.208 12.4648C10.208 13.5482 9.77051 14.569 8.89551 15.5273C8.02051 16.444 6.85384 16.9023 5.39551 16.9023C3.64551 16.9023 2.31217 16.2982 1.39551 15.0898C0.478841 13.8815 0.0205078 12.444 0.0205078 10.7773C0.0205078 8.44401 0.666341 6.36068 1.95801 4.52734C3.29134 2.65234 5.35384 1.25651 8.14551 0.339844L9.58301 2.40234C6.41634 3.61068 4.83301 5.50651 4.83301 8.08984C4.83301 8.29818 4.89551 8.42318 5.02051 8.46484C5.18717 8.50651 5.33301 8.50651 5.45801 8.46484ZM16.1455 8.40234C16.9372 8.19401 17.6247 8.19401 18.208 8.40234C18.7913 8.56901 19.2913 8.88151 19.708 9.33984C20.1247 9.75651 20.4372 10.2565 20.6455 10.8398C20.8538 11.3815 20.958 11.9232 20.958 12.4648C20.958 13.5482 20.4997 14.569 19.583 15.5273C18.708 16.444 17.5413 16.9023 16.083 16.9023C14.333 16.9023 12.9997 16.2982 12.083 15.0898C11.1663 13.8815 10.708 12.444 10.708 10.7773C10.708 8.44401 11.3747 6.36068 12.708 4.52734C14.0413 2.65234 16.083 1.25651 18.833 0.339844L20.333 2.40234C17.1247 3.61068 15.5205 5.50651 15.5205 8.08984C15.5205 8.25651 15.583 8.36068 15.708 8.40234C15.8747 8.44401 16.0205 8.44401 16.1455 8.40234Z" fill="#656565"/>
</svg>
