<svg width="34" height="34" viewBox="0 0 34 34" fill="none" xmlns="http://www.w3.org/2000/svg">
<g clip-path="url(#clip0_377_381)">
<path d="M28.5452 28.6064H23.6643V20.9473C23.6643 19.1209 23.6262 16.7738 21.112 16.7738C18.5668 16.7738 18.1791 18.7548 18.1791 20.8122V28.6053H13.292V12.8571H17.9863V15.0052H18.0492C18.705 13.7646 20.3004 12.4601 22.6805 12.4601C27.6315 12.4601 28.5504 15.7199 28.5504 19.9583V28.6053L28.5452 28.6064ZM7.77069 10.7049C7.39766 10.705 7.02827 10.6316 6.68368 10.4887C6.33908 10.3459 6.02606 10.1365 5.76252 9.87246C5.49899 9.60845 5.29014 9.29504 5.14792 8.95018C5.0057 8.60533 4.93291 8.23581 4.93372 7.86278C4.93434 7.30132 5.10141 6.75264 5.41383 6.28613C5.72625 5.81961 6.16999 5.45621 6.68892 5.24187C7.20786 5.02752 7.77871 4.97186 8.32928 5.08192C8.87985 5.19198 9.38542 5.46282 9.78207 5.8602C10.1787 6.25757 10.4486 6.76364 10.5577 7.31441C10.6668 7.86518 10.6101 8.43592 10.3948 8.95447C10.1795 9.47301 9.81529 9.91609 9.34821 10.2277C8.88113 10.5392 8.33216 10.7053 7.77069 10.7049ZM10.2189 28.6064H5.32147V12.8582H10.2189V28.6064ZM30.9955 0.483154H2.8671C1.52338 0.483154 0.43335 1.54637 0.43335 2.86225V31.1051C0.43335 32.421 1.52338 33.4842 2.8671 33.4842H30.9903C32.332 33.4842 33.4333 32.421 33.4333 31.1051V2.86225C33.4333 1.54637 32.332 0.483154 30.9903 0.483154H30.9955Z" fill="#9DBFD9"/>
</g>
<defs>
<clipPath id="clip0_377_381">
<rect width="33" height="33" fill="white" transform="translate(0.43335 0.483154)"/>
</clipPath>
</defs>
</svg>
