<svg width="30" height="25" viewBox="0 0 30 25" fill="none" xmlns="http://www.w3.org/2000/svg">
<path d="M28.8757 8.48171C29.0999 8.29427 29.4332 8.46961 29.4332 8.76594V21.1311C29.4332 22.7333 28.1972 24.0334 26.6739 24.0334H2.75937C1.23598 24.0334 0 22.7333 0 21.1311V8.77194C0 8.46961 0.327666 8.30031 0.557613 8.48776C1.84532 9.5399 3.55268 10.8761 9.41634 15.3566C10.6293 16.2878 12.6758 18.2469 14.7166 18.2347C16.7689 18.2529 18.8557 16.2515 20.0227 15.3566C25.8863 10.8761 27.588 9.5339 28.8757 8.48171ZM14.7166 16.2938C16.0503 16.318 17.9703 14.5282 18.9361 13.7907C26.5646 7.96774 27.1454 7.45985 28.9044 6.00868C29.2379 5.73658 29.4332 5.31332 29.4332 4.86588V3.71704C29.4332 2.11471 28.1972 0.814697 26.6739 0.814697H2.75937C1.23598 0.814697 0 2.11471 0 3.71704V4.86588C0 5.31332 0.195455 5.73054 0.528878 6.00868C2.28797 7.4538 2.8686 7.96774 10.4971 13.7907C11.463 14.5282 13.3829 16.318 14.7166 16.2938Z" fill="#BED3E2"/>
</svg>
