<svg width="22" height="17" viewBox="0 0 22 17" fill="none" xmlns="http://www.w3.org/2000/svg">
<path d="M16.2295 8.65234C15.4378 8.86068 14.7503 8.88151 14.167 8.71484C13.5837 8.50651 13.0837 8.19401 12.667 7.77734C12.292 7.36068 12.0003 6.88151 11.792 6.33984C11.5837 5.75651 11.4795 5.19401 11.4795 4.65234C11.4795 4.11068 11.5837 3.56901 11.792 3.02734C12.042 2.48568 12.3753 2.00651 12.792 1.58984C13.2087 1.17318 13.7087 0.839844 14.292 0.589844C14.917 0.298177 15.5837 0.152344 16.292 0.152344C18.042 0.152344 19.3753 0.777344 20.292 2.02734C21.2503 3.23568 21.7295 4.67318 21.7295 6.33984C21.7295 8.67318 21.0628 10.7773 19.7295 12.6523C18.3962 14.4857 16.3337 15.8607 13.542 16.7773L12.042 14.7148C15.292 13.4232 16.917 11.5273 16.917 9.02734C16.917 8.61068 16.6878 8.48568 16.2295 8.65234ZM5.54199 8.65234C4.79199 8.86068 4.10449 8.88151 3.47949 8.71484C2.89616 8.50651 2.39616 8.19401 1.97949 7.77734C1.60449 7.36068 1.31283 6.88151 1.10449 6.33984C0.896159 5.75651 0.791992 5.19401 0.791992 4.65234C0.791992 4.11068 0.896159 3.56901 1.10449 3.02734C1.35449 2.48568 1.68783 2.00651 2.10449 1.58984C2.52116 1.17318 3.02116 0.839844 3.60449 0.589844C4.18783 0.298177 4.83366 0.152344 5.54199 0.152344C7.33366 0.152344 8.68783 0.777344 9.60449 2.02734C10.5212 3.23568 10.9795 4.67318 10.9795 6.33984C10.9795 8.67318 10.3128 10.7773 8.97949 12.6523C7.68783 14.4857 5.64616 15.8607 2.85449 16.7773L1.35449 14.7148C4.56283 13.4232 6.16699 11.5273 6.16699 9.02734C6.16699 8.69401 5.95866 8.56901 5.54199 8.65234Z" fill="#656565"/>
</svg>
